<svg xmlns="http://www.w3.org/2000/svg" xmlns:xlink="http://www.w3.org/1999/xlink" width="1920" zoomAndPan="magnify" viewBox="0 0 1440 809.999993" height="1080" preserveAspectRatio="xMidYMid meet" version="1.2"><defs><clipPath id="7605364d27"><path d="M 461.8125 144 L 536 144 L 536 221 L 461.8125 221 Z M 461.8125 144 "/></clipPath></defs><g id="e83dd05c75"><path style=" stroke:none;fill-rule:nonzero;fill:#002b5b;fill-opacity:1;" d="M 594.0625 104.386719 L 594.0625 104.433594 C 598.300781 110.652344 604.382812 115.695312 611.074219 119.230469 C 620.027344 123.945312 630.066406 126.113281 640.152344 127.335938 L 640.199219 125.359375 L 640.246094 125.359375 C 640.152344 127.667969 640.105469 129.882812 640.105469 132.097656 C 629.359375 130.917969 617.953125 129.363281 608.339844 124.320312 C 600.613281 120.269531 593.730469 114.1875 589.535156 106.601562 L 589.726562 106.507812 C 591.1875 105.800781 592.601562 105.09375 594.0625 104.386719 Z M 594.0625 104.386719 "/><path style=" stroke:none;fill-rule:nonzero;fill:#002b5b;fill-opacity:1;" d="M 838.5625 121.117188 C 842.285156 121.304688 846.007812 121.257812 849.683594 120.976562 C 851.191406 120.832031 853.644531 120.644531 856.753906 120.410156 C 863.964844 119.9375 866.132812 119.984375 866.699219 118.761719 C 867.308594 117.296875 865.519531 114.988281 863.824219 113.71875 C 862.597656 112.820312 860.902344 112.113281 854.351562 112.207031 C 847.941406 112.257812 846.195312 112.964844 842.003906 112.351562 C 841.484375 112.257812 840.964844 112.160156 840.496094 112.066406 C 839.128906 111.359375 836.113281 109.617188 834.179688 105.988281 C 833.378906 104.480469 833 103.019531 832.765625 101.886719 C 834.085938 98.070312 835.828125 94.394531 837.949219 90.953125 C 842.144531 87.890625 846.292969 84.78125 850.484375 81.667969 C 851.523438 81.433594 853.21875 81.058594 855.292969 80.679688 C 859.675781 79.925781 861.136719 79.972656 862.21875 78.746094 C 862.785156 78.183594 863.585938 76.910156 863.304688 74.082031 C 862.03125 73.894531 860.664062 73.753906 859.15625 73.753906 C 854.820312 73.609375 851.050781 74.269531 848.128906 75.070312 C 844.078125 76.910156 839.742188 79.171875 835.214844 82 C 833.847656 82.847656 832.578125 83.695312 831.351562 84.59375 L 831.257812 84.449219 C 832.578125 81.574219 835.214844 76.816406 840.257812 72.433594 C 844.5 68.757812 848.835938 66.730469 852.089844 65.597656 L 852.136719 65.597656 C 853.359375 65.175781 854.398438 64.890625 855.246094 64.65625 C 858.402344 63.808594 861.703125 63.335938 865.144531 63.335938 C 885.40625 63.335938 901.808594 79.738281 901.808594 100.003906 C 901.808594 120.222656 885.40625 136.667969 865.144531 136.667969 C 853.738281 136.667969 843.558594 131.484375 836.867188 123.332031 L 836.675781 123.144531 C 837.429688 122.386719 838.042969 121.730469 838.5625 121.117188 Z M 838.5625 121.117188 "/><path style=" stroke:none;fill-rule:nonzero;fill:#002b5b;fill-opacity:1;" d="M 691.851562 203.070312 C 694.539062 198.972656 696.375 194.070312 697.695312 189.359375 C 703.117188 169.707031 703.019531 164.757812 701.984375 161.316406 C 701.417969 159.289062 700.664062 157.6875 700.097656 156.652344 C 702.265625 156.039062 704.386719 155.425781 706.507812 154.859375 C 706.554688 154.859375 706.648438 154.8125 706.699219 154.765625 L 706.839844 155.144531 C 710.515625 160.941406 711.128906 168.246094 709.996094 175.03125 C 708.769531 181.769531 705.945312 188.179688 703.210938 194.449219 C 702.972656 194.871094 702.785156 195.34375 702.550781 195.765625 C 701.984375 196.992188 701.277344 198.21875 700.289062 199.113281 C 698.027344 201.28125 694.632812 201.609375 691.851562 203.070312 Z M 691.851562 203.070312 "/><path style=" stroke:none;fill-rule:nonzero;fill:#002b5b;fill-opacity:1;" d="M 518.46875 147.132812 C 512.859375 145.71875 507.015625 144.773438 501.265625 144.964844 C 495.515625 145.058594 490 147.179688 485.429688 150.570312 L 485.289062 150.382812 C 485.714844 148.734375 486.230469 147.132812 486.84375 145.574219 C 489.4375 143.644531 492.027344 141.664062 494.667969 139.824219 C 513.660156 135.632812 530.71875 139.308594 537.367188 149.675781 C 538.496094 151.371094 542.503906 157.59375 540.570312 164.992188 C 539.4375 169.328125 536.707031 172.390625 534.207031 174.324219 C 531.992188 176.066406 529.964844 177.011719 529.402344 177.246094 C 532.371094 174.796875 533.878906 170.929688 534.398438 167.113281 C 534.585938 165.839844 534.679688 164.519531 534.585938 163.25 C 534.539062 160.136719 533.738281 157.121094 531.945312 154.625 C 528.882812 150.335938 523.558594 148.402344 518.46875 147.132812 Z M 518.46875 147.132812 "/><path style=" stroke:none;fill-rule:nonzero;fill:#002b5b;fill-opacity:1;" d="M 709.621094 347.707031 C 713.484375 356.050781 717.347656 364.25 721.261719 372.59375 C 718.195312 369.90625 713.011719 366.230469 705.894531 364.628906 C 696.519531 362.507812 688.128906 364.957031 684.925781 365.851562 C 684.878906 365.898438 684.78125 365.898438 684.734375 365.949219 C 673.425781 369.246094 664.753906 378.34375 660.984375 389.511719 C 660.558594 390.785156 660.183594 392.054688 659.757812 393.328125 C 657.824219 398.984375 655.894531 405.253906 654.949219 411.285156 C 654.339844 415.289062 653.914062 421.183594 655.042969 428.675781 C 654.902344 428.582031 654.808594 428.535156 654.714844 428.441406 C 648.917969 424.054688 642.839844 421.324219 635.863281 419.34375 C 634.167969 418.871094 632.46875 418.449219 630.726562 418.542969 C 628.984375 418.636719 627.144531 419.296875 626.109375 420.710938 C 625.261719 421.886719 625.023438 423.398438 625.070312 424.8125 C 625.117188 428.203125 626.578125 431.363281 627.050781 434.660156 C 627.476562 437.441406 626.863281 440.222656 626.4375 443.050781 C 602.402344 461.144531 571.675781 470.007812 541.75 467.601562 C 540.144531 467.460938 538.589844 467.320312 536.988281 467.132812 C 534.207031 455.960938 529.023438 445.359375 527.421875 433.953125 C 526.054688 424.480469 527.234375 414.960938 529.070312 405.582031 C 529.070312 405.535156 529.070312 405.441406 529.117188 405.394531 C 530.671875 399.125 532.277344 392.808594 533.832031 386.542969 C 534.253906 384.796875 534.726562 383.007812 535.199219 381.265625 C 556.359375 384.5625 580.960938 386.355469 601.320312 378.484375 C 613.289062 373.863281 623.609375 365.804688 635.25 360.527344 C 646.609375 355.34375 658.910156 352.847656 670.550781 348.511719 C 679.128906 345.351562 692.511719 339.792969 695.621094 330.035156 L 696 330.128906 L 696.09375 330.128906 L 696.09375 330.175781 C 702.738281 333.617188 706.414062 340.875 709.621094 347.707031 Z M 709.621094 347.707031 "/><path style=" stroke:none;fill-rule:nonzero;fill:#e0a47e;fill-opacity:1;" d="M 655.234375 56.363281 C 654.574219 55.230469 653.488281 53.441406 651.511719 53.15625 C 649.199219 52.875 647.503906 54.808594 647.316406 55.042969 C 644.0625 59 642.648438 59.378906 641.992188 59.09375 C 639.445312 58.011719 644.628906 47.265625 639.632812 41.894531 C 637.371094 39.488281 633.835938 39.113281 632 34.917969 C 631.527344 33.929688 631.292969 33.363281 631.199219 32.183594 C 630.867188 28.226562 629.078125 24.363281 626.25 21.535156 C 626.25 21.535156 625.964844 21.25 625.496094 20.78125 C 622.433594 18.09375 618.425781 16.398438 614.375 15.785156 C 608.859375 14.890625 603.25 15.785156 597.878906 17.246094 C 592.503906 18.707031 587.839844 22.289062 585.390625 27.285156 C 585.34375 27.425781 585.246094 27.566406 585.199219 27.707031 C 584.730469 28.652344 584.351562 29.640625 583.976562 30.628906 C 581.996094 35.859375 581.289062 41.46875 581.335938 47.03125 C 581.335938 49.292969 581.335938 51.601562 581.429688 54.003906 C 581.523438 64.183594 582.089844 75.117188 584.351562 83.460938 C 584.917969 85.769531 585.671875 88.03125 586.945312 90.011719 C 588.734375 92.839844 591.46875 94.820312 594.484375 96.230469 C 594.34375 98.917969 594.203125 101.699219 594.0625 104.386719 L 594.0625 104.433594 C 598.300781 110.652344 604.382812 115.695312 611.074219 119.230469 C 620.027344 123.945312 630.066406 126.113281 640.152344 127.335938 L 640.199219 125.359375 L 640.246094 125.359375 C 640.386719 117.582031 640.859375 109.335938 641.753906 100.617188 C 642.179688 96.042969 642.699219 91.660156 643.308594 87.371094 C 643.921875 82.566406 644.675781 77.898438 645.476562 73.46875 C 646.230469 73.707031 647.597656 74.035156 649.152344 73.753906 C 651.652344 73.234375 653.066406 71.585938 653.820312 70.6875 C 656.269531 67.8125 656.457031 64.515625 656.554688 63.007812 C 656.648438 61.453125 656.789062 58.90625 655.234375 56.363281 Z M 592.152344 46.867188 C 592.121094 46.824219 592.09375 46.777344 592.058594 46.738281 C 592.09375 46.777344 592.121094 46.828125 592.152344 46.867188 Z M 592.152344 46.867188 "/><path style=" stroke:none;fill-rule:nonzero;fill:#e0a47e;fill-opacity:1;" d="M 863.824219 113.71875 C 862.597656 112.820312 860.902344 112.113281 854.351562 112.207031 C 847.941406 112.257812 846.195312 112.964844 842.003906 112.351562 C 841.484375 112.257812 840.964844 112.160156 840.496094 112.066406 C 839.128906 111.359375 836.113281 109.617188 834.179688 105.988281 C 833.378906 104.480469 833 103.019531 832.765625 101.886719 C 834.085938 98.070312 835.828125 94.394531 837.949219 90.953125 C 842.144531 87.890625 846.292969 84.78125 850.484375 81.667969 C 851.523438 81.433594 853.21875 81.058594 855.292969 80.679688 C 859.675781 79.925781 861.136719 79.972656 862.21875 78.746094 C 862.785156 78.183594 863.585938 76.910156 863.304688 74.082031 C 862.03125 73.894531 860.664062 73.753906 859.15625 73.753906 C 854.820312 73.609375 851.050781 74.269531 848.128906 75.070312 C 844.078125 76.910156 839.742188 79.171875 835.214844 82 C 833.847656 82.847656 832.578125 83.695312 831.351562 84.589844 L 831.257812 84.449219 C 832.578125 81.574219 835.214844 76.816406 840.257812 72.433594 C 844.5 68.757812 848.835938 66.730469 852.089844 65.597656 L 847.234375 66.210938 C 844.6875 66.542969 842.285156 67.625 840.351562 69.371094 C 834.652344 74.601562 828.902344 79.832031 823.199219 85.0625 C 822.726562 85.296875 822.253906 85.535156 821.832031 85.816406 C 818.910156 87.515625 816.648438 90.152344 815.328125 93.261719 C 812.878906 99.105469 810.378906 104.902344 807.882812 110.746094 C 806.65625 113.527344 804.628906 115.789062 802.039062 117.347656 C 798.925781 119.183594 795.628906 121.023438 793.648438 122.339844 C 797.183594 124.226562 799.585938 127.996094 800.386719 131.957031 C 800.953125 134.925781 800.71875 137.941406 799.964844 140.910156 C 803.640625 139.070312 811.839844 135.019531 815.421875 133.039062 C 817.824219 132.851562 820.796875 132.378906 824.046875 131.25 C 829.890625 129.128906 834.039062 125.78125 836.675781 123.144531 C 837.429688 122.386719 838.042969 121.730469 838.5625 121.117188 C 842.285156 121.304688 846.007812 121.257812 849.683594 120.976562 C 851.191406 120.832031 853.644531 120.644531 856.753906 120.410156 C 863.964844 119.9375 866.132812 119.984375 866.699219 118.757812 C 867.308594 117.296875 865.519531 114.988281 863.824219 113.71875 Z M 863.824219 113.71875 "/><path style=" stroke:none;fill-rule:nonzero;fill:#e0a47e;fill-opacity:1;" d="M 541.230469 222.207031 C 538.636719 217.730469 533.078125 208.492188 530.4375 204.015625 C 527.421875 203.355469 524.453125 202.882812 521.390625 202.882812 C 518.5625 202.882812 515.734375 203.402344 513.1875 204.582031 C 509.890625 206.089844 507.816406 209.433594 507.769531 213.0625 C 507.722656 215.417969 507.675781 217.730469 507.628906 220.085938 C 503.621094 223.289062 499.617188 226.496094 495.609375 229.699219 C 494.289062 231.113281 492.828125 232.574219 491.085938 234.128906 C 489.53125 235.496094 488.023438 236.722656 486.5625 237.757812 C 486.9375 238.511719 487.691406 239.832031 489.105469 240.210938 C 490.097656 240.539062 491.132812 240.257812 493.628906 238.796875 C 495.234375 237.851562 497.257812 236.535156 499.570312 234.648438 C 501.265625 233.660156 503.152344 232.714844 505.128906 231.726562 C 508.050781 230.3125 510.832031 229.179688 513.472656 228.238281 C 509.984375 236.34375 507.390625 242.707031 506.023438 246.289062 C 505.601562 247.371094 504.847656 249.398438 505.789062 250.71875 C 506.355469 251.472656 507.390625 251.898438 508.335938 251.753906 C 510.410156 251.425781 511.539062 248.269531 511.917969 247.277344 C 513.140625 244.027344 516.0625 238.9375 523.605469 230.59375 C 523.652344 233.328125 523.652344 236.0625 523.652344 238.75 C 523.367188 240.539062 523.132812 242.378906 522.945312 244.261719 C 522.804688 245.203125 522.566406 247.515625 522.332031 250.152344 C 521.390625 261.085938 522.472656 262.3125 522.992188 262.738281 C 523.699219 263.394531 525.300781 264.246094 526.902344 263.820312 C 527.46875 263.632812 527.941406 263.347656 528.222656 263.113281 C 527.941406 264.574219 527.609375 265.988281 527.28125 267.449219 C 527.234375 267.496094 527.234375 267.542969 527.234375 267.589844 C 526.480469 269.710938 526.855469 271.925781 528.128906 273.152344 C 529.210938 274.140625 530.816406 274.425781 531.664062 274.1875 C 531.945312 274.09375 532.230469 274 532.417969 273.765625 C 532.652344 273.480469 532.746094 273.152344 532.792969 272.820312 C 533.078125 271.550781 533.3125 270.324219 533.59375 269.050781 C 534.726562 263.773438 535.90625 258.496094 537.128906 253.214844 C 539.769531 244.449219 542.457031 235.589844 543.585938 226.496094 C 542.925781 225.035156 542.078125 223.621094 541.230469 222.207031 Z M 541.230469 222.207031 "/><path style=" stroke:none;fill-rule:nonzero;fill:#e0a47e;fill-opacity:1;" d="M 818.722656 461.617188 C 823.058594 468.214844 825.179688 476.132812 824.800781 483.910156 C 824.613281 488.246094 823.574219 492.722656 821.03125 496.351562 C 817.164062 501.867188 810.425781 504.457031 804.113281 506.765625 C 802.273438 507.472656 800.339844 508.179688 798.363281 508.226562 C 797.609375 508.273438 796.855469 508.179688 796.101562 507.992188 L 796.148438 508.039062 C 808.351562 518.21875 822.253906 526.417969 837.148438 532.121094 C 838.183594 532.546875 839.222656 532.921875 840.304688 533.347656 L 840.351562 533.347656 C 845.539062 531.746094 850.53125 529.71875 854.257812 525.902344 C 857.082031 523.027344 858.921875 519.445312 860.664062 515.816406 C 863.117188 510.773438 865.660156 505.257812 865.425781 499.746094 C 863.304688 498.1875 861.136719 496.632812 859.015625 495.03125 C 845.207031 484.378906 832.90625 471.75 818.722656 461.617188 Z M 818.722656 461.617188 "/><path style=" stroke:none;fill-rule:nonzero;fill:#e0a47e;fill-opacity:1;" d="M 765.75 437.769531 C 749.113281 420.710938 739.121094 388.664062 721.261719 372.59375 C 718.195312 369.90625 713.011719 366.230469 705.894531 364.628906 C 696.519531 362.507812 688.128906 364.957031 684.925781 365.851562 C 684.878906 365.898438 684.78125 365.898438 684.734375 365.949219 C 673.425781 369.246094 664.753906 378.34375 660.984375 389.511719 C 660.558594 390.785156 660.183594 392.054688 659.757812 393.328125 C 657.824219 398.984375 655.894531 405.253906 654.949219 411.285156 C 654.339844 415.289062 653.914062 421.183594 655.042969 428.675781 C 658.015625 430.890625 661.644531 432.492188 664.894531 434.285156 C 668.429688 436.261719 672.011719 438.242188 675.640625 440.175781 C 686.761719 446.207031 698.027344 452.097656 709.382812 457.753906 L 709.382812 457.800781 C 714.003906 464.210938 720.128906 469.394531 726.773438 473.683594 C 732.710938 477.5 739.074219 480.515625 745.4375 483.484375 C 746.285156 483.910156 747.132812 484.238281 747.933594 484.664062 C 751.988281 482.917969 755.570312 479.714844 758.066406 475.945312 C 761.835938 470.195312 763.394531 463.3125 764.289062 456.480469 C 765.136719 450.542969 765.417969 444.464844 766.550781 438.523438 C 766.265625 438.335938 765.984375 438.101562 765.75 437.769531 Z M 765.75 437.769531 "/><path style=" stroke:none;fill-rule:nonzero;fill:#e0a47e;fill-opacity:1;" d="M 541.75 467.601562 L 541.75 467.648438 C 554.285156 502.523438 565.03125 538.105469 573.84375 574.066406 L 573.84375 574.113281 L 573.796875 574.113281 C 564.9375 598.667969 564.511719 629.441406 570.875 656.070312 C 572.195312 661.675781 573.796875 667.097656 575.726562 672.234375 C 578.179688 674.921875 581.054688 677.089844 584.539062 678.078125 C 590.667969 679.726562 597.359375 677.039062 601.835938 672.5625 C 604.710938 669.640625 606.832031 665.964844 608.433594 662.101562 C 608.386719 659.839844 608.433594 657.625 608.53125 655.363281 C 609.613281 635.238281 617.199219 615.304688 616.398438 595.039062 C 620.828125 545.082031 624.082031 494.984375 626.203125 444.886719 L 626.203125 444.839844 C 626.25 444.226562 626.34375 443.613281 626.4375 443.050781 C 602.402344 461.144531 571.675781 470.007812 541.75 467.601562 Z M 541.75 467.601562 "/><path style=" stroke:none;fill-rule:nonzero;fill:#ffc107;fill-opacity:1;" d="M 799.964844 140.90625 C 779.929688 153.585938 759.957031 166.3125 739.921875 179.089844 C 730.9375 184.816406 721.582031 190.671875 711.511719 193.804688 C 708.578125 194.722656 705.59375 195.402344 702.542969 195.773438 C 702.785156 195.335938 702.980469 194.867188 703.207031 194.449219 C 705.949219 188.171875 708.769531 181.769531 709.996094 175.027344 C 710.464844 172.21875 710.640625 169.316406 710.417969 166.460938 C 710.09375 162.441406 708.980469 158.539062 706.835938 155.152344 L 706.691406 154.761719 C 734.96875 144.4375 764.894531 131.902344 793.367188 122.191406 C 793.464844 122.242188 793.5625 122.289062 793.644531 122.335938 C 797.175781 124.226562 799.578125 128 800.386719 131.953125 C 800.949219 134.921875 800.726562 137.9375 799.964844 140.90625 Z M 799.964844 140.90625 "/><path style=" stroke:none;fill-rule:nonzero;fill:#ffc107;fill-opacity:1;" d="M 700.097656 156.652344 C 693.3125 153.683594 686.527344 150.710938 679.691406 147.742188 C 670.832031 143.503906 664.660156 139.402344 660.558594 136.386719 C 659.097656 135.300781 657.96875 134.265625 655.941406 133.039062 C 649.953125 129.503906 644.207031 125.78125 640.246094 125.359375 C 640.152344 127.667969 640.105469 129.882812 640.105469 132.097656 C 629.359375 130.917969 617.953125 129.363281 608.339844 124.320312 C 600.613281 120.269531 593.730469 114.1875 589.535156 106.601562 C 588.640625 106.269531 587.320312 105.800781 585.765625 105.328125 C 583.269531 104.527344 578.414062 103.300781 571.390625 102.5 C 566.160156 101.886719 560.789062 101.324219 555.558594 102.359375 C 549.523438 103.488281 544.058594 106.742188 538.78125 110.042969 C 523.699219 119.371094 508.996094 129.269531 494.667969 139.824219 C 513.660156 135.632812 530.71875 139.308594 537.367188 149.675781 C 538.496094 151.371094 542.503906 157.59375 540.570312 164.992188 C 539.4375 169.328125 536.707031 172.390625 534.207031 174.324219 C 531.992188 176.066406 529.964844 177.011719 529.402344 177.246094 C 529.070312 177.527344 528.742188 177.765625 528.363281 178 C 526.761719 179.035156 524.972656 179.601562 523.085938 179.789062 L 523.085938 180.027344 C 524.40625 186.390625 525.582031 193.269531 526.714844 200.246094 C 520.351562 193.742188 514.792969 186.671875 509.890625 179.082031 L 509.890625 179.035156 L 509.9375 179.035156 C 517.714844 173.664062 526.433594 168.054688 534.585938 163.25 C 534.539062 160.136719 533.738281 157.121094 531.945312 154.625 C 528.882812 150.335938 523.558594 148.402344 518.46875 147.132812 C 512.859375 145.71875 507.015625 144.773438 501.265625 144.964844 C 495.515625 145.058594 490 147.179688 485.429688 150.570312 C 484.394531 151.277344 483.449219 152.078125 482.554688 152.925781 C 477.890625 157.261719 473.367188 161.742188 469.21875 166.546875 C 466.4375 169.800781 463.703125 173.476562 462.480469 177.527344 C 463.042969 179.082031 464.082031 181.582031 465.683594 184.503906 C 472.46875 196.804688 482.695312 203.828125 495.75 212.640625 C 498.53125 214.523438 502.585938 217.164062 507.628906 220.085938 C 507.675781 217.730469 507.722656 215.417969 507.769531 213.0625 C 507.816406 209.433594 509.890625 206.089844 513.1875 204.582031 C 515.734375 203.402344 518.5625 202.882812 521.390625 202.882812 C 524.453125 202.882812 527.421875 203.355469 530.4375 204.015625 C 533.078125 208.492188 538.636719 217.730469 541.230469 222.207031 C 542.078125 223.621094 542.925781 225.035156 543.585938 226.496094 C 542.457031 235.589844 539.769531 244.449219 537.128906 253.214844 C 535.90625 258.496094 534.726562 263.773438 533.59375 269.050781 L 533.640625 269.050781 C 535.246094 286.582031 536.988281 304.113281 538.683594 321.601562 C 538.730469 321.929688 538.730469 322.257812 538.78125 322.589844 C 537.882812 327.773438 536.941406 332.957031 536 338.09375 C 533.40625 352.234375 530.863281 366.890625 532.839844 380.886719 C 533.640625 381.027344 534.398438 381.167969 535.199219 381.265625 C 556.359375 384.5625 580.960938 386.355469 601.320312 378.484375 C 613.289062 373.863281 623.609375 365.804688 635.25 360.527344 C 646.609375 355.34375 658.910156 352.847656 670.550781 348.511719 C 679.128906 345.351562 692.511719 339.792969 695.621094 330.035156 C 696.140625 328.480469 696.375 326.785156 696.28125 324.992188 C 696.1875 323.578125 696 322.164062 695.574219 320.796875 C 694.351562 316.886719 691.617188 313.683594 688.929688 310.617188 C 687.1875 308.59375 685.441406 306.566406 683.699219 304.539062 C 679.082031 273.292969 679.503906 241.246094 684.972656 210.140625 C 687.75 208.398438 690.015625 205.945312 691.851562 203.070312 C 694.539062 198.972656 696.375 194.070312 697.695312 189.359375 C 703.117188 169.707031 703.019531 164.757812 701.984375 161.316406 C 701.417969 159.289062 700.664062 157.6875 700.097656 156.652344 Z M 700.097656 156.652344 "/><path style=" stroke:none;fill-rule:nonzero;fill:#ffc107;fill-opacity:1;" d="M 970.003906 550.359375 C 968.023438 545.363281 962.367188 543.667969 961.753906 543.527344 L 961.753906 543.480469 C 957.089844 543.996094 952.28125 545.222656 947.757812 545.128906 C 946.109375 545.222656 943.941406 545.175781 941.492188 544.703125 C 939.039062 544.234375 937.058594 543.480469 935.597656 542.820312 C 932.914062 540.558594 930.132812 538.34375 927.445312 536.082031 C 926.550781 535.375 925.65625 534.761719 924.617188 534.289062 C 922.78125 533.535156 920.707031 533.628906 918.679688 533.960938 C 918.964844 534.148438 919.246094 534.335938 919.480469 534.523438 C 918.160156 535.984375 916.84375 537.496094 915.429688 538.90625 C 915.050781 537.964844 914.15625 537.351562 913.167969 537.070312 C 912.222656 536.789062 911.1875 536.835938 910.195312 536.882812 C 906.804688 536.929688 903.128906 537.164062 900.675781 539.425781 C 899.167969 540.792969 898.320312 542.726562 897.945312 544.703125 C 897.566406 546.730469 897.660156 548.757812 897.707031 550.738281 C 897.753906 552.339844 897.800781 553.988281 898.320312 555.496094 C 898.980469 557.523438 900.347656 558.984375 902.515625 558.984375 C 903.035156 558.984375 903.082031 564.121094 903.082031 564.546875 C 902.988281 566.808594 902.5625 569.023438 901.808594 571.191406 C 901.148438 570.957031 900.394531 570.71875 899.734375 570.484375 C 899.875 570.765625 900.015625 571.097656 900.207031 571.332031 C 901.242188 572.652344 903.082031 572.933594 904.730469 573.125 C 908.546875 573.640625 912.316406 574.394531 916.089844 575.339844 C 918.914062 577.976562 921.179688 581.417969 924.808594 582.785156 C 927.304688 583.679688 930.085938 583.398438 932.773438 583.160156 C 936.402344 582.832031 940.078125 582.453125 943.375 581.183594 L 943.421875 581.183594 C 944.316406 580.804688 945.261719 580.382812 946.109375 579.816406 C 948.984375 580.144531 951.90625 580.144531 954.59375 579.109375 C 958.222656 577.648438 960.71875 574.347656 962.839844 570.957031 C 962.414062 570.4375 961.613281 569.304688 961.472656 567.65625 C 961.332031 565.867188 962.132812 564.546875 962.792969 563.554688 C 963.453125 562.472656 963.96875 561.625 965.101562 561.199219 C 966.46875 560.679688 967.835938 561.199219 968.210938 561.386719 C 968.964844 560.023438 969.578125 558.65625 970.050781 557.101562 C 970.664062 554.933594 970.851562 552.527344 970.003906 550.359375 Z M 970.003906 550.359375 "/><path style=" stroke:none;fill-rule:nonzero;fill:#ffc107;fill-opacity:1;" d="M 616.824219 737.601562 C 618.945312 725.773438 620.265625 713.800781 620.6875 701.785156 C 620.78125 699.285156 620.828125 696.835938 620.171875 694.429688 C 619.652344 692.3125 618.425781 690.191406 616.589844 689.011719 C 616.683594 691.652344 616.730469 694.289062 616.730469 696.882812 C 616.730469 701.125 616.636719 705.316406 616.542969 709.464844 C 616.445312 713.234375 616.304688 717.101562 614.890625 720.539062 C 612.394531 726.621094 605.84375 730.53125 599.292969 730.296875 C 592.789062 730.105469 585.90625 727.042969 582.890625 721.246094 C 581.808594 719.078125 580.960938 717.476562 580.628906 716.441406 C 580.253906 719.925781 580.441406 723.414062 580.628906 726.902344 C 581.007812 732.226562 581.476562 737.554688 582.9375 742.691406 C 581.714844 746.035156 580.628906 749.476562 579.875 752.964844 C 575.539062 772.898438 583.316406 794.957031 599.292969 807.679688 C 603.34375 809.472656 608.339844 809.09375 612.015625 806.644531 C 617.105469 803.25 619.132812 796.886719 620.875 790.996094 C 622.527344 785.292969 624.175781 779.542969 624.269531 773.605469 C 624.410156 768 623.140625 762.4375 621.773438 756.96875 C 620.21875 750.515625 618.566406 744.058594 616.824219 737.601562 Z M 616.824219 737.601562 "/><path style=" stroke:none;fill-rule:nonzero;fill:#000000;fill-opacity:1;" d="M 638.925781 9.328125 C 634.542969 6.925781 630.539062 5.511719 627.617188 4.613281 C 619.839844 1.503906 610.839844 1.363281 602.875 4.285156 C 592.929688 7.960938 584.871094 16.207031 581.101562 26.152344 C 577.753906 35.058594 578.210938 45.917969 581.320312 54.871094 L 581.429688 54.003906 C 581.335938 51.601562 581.335938 49.292969 581.335938 47.03125 C 581.289062 41.46875 581.996094 35.859375 583.976562 30.628906 C 584.351562 29.640625 584.730469 28.652344 585.199219 27.707031 C 585.246094 27.566406 585.34375 27.425781 585.390625 27.285156 C 587.839844 22.289062 592.503906 18.707031 597.878906 17.246094 C 603.25 15.785156 608.859375 14.890625 614.375 15.785156 C 618.425781 16.398438 622.433594 18.09375 625.496094 20.78125 C 625.964844 21.25 626.25 21.535156 626.25 21.535156 C 629.078125 24.363281 630.867188 28.226562 631.199219 32.183594 C 631.292969 33.363281 631.527344 33.929688 632 34.917969 C 633.835938 39.113281 637.371094 39.488281 639.632812 41.894531 C 644.628906 47.265625 639.445312 58.011719 641.992188 59.09375 C 642.648438 59.378906 644.0625 59 647.316406 55.042969 C 647.503906 54.808594 649.199219 52.875 651.511719 53.15625 C 653.488281 53.441406 654.574219 55.230469 655.234375 56.363281 C 656.789062 58.90625 656.648438 61.453125 656.554688 63.007812 C 656.457031 64.515625 656.269531 67.8125 653.820312 70.6875 C 653.066406 71.585938 651.652344 73.234375 649.152344 73.753906 C 647.597656 74.035156 646.230469 73.707031 645.476562 73.46875 C 644.675781 77.898438 643.921875 82.566406 643.308594 87.371094 C 642.699219 91.660156 642.179688 96.042969 641.753906 100.617188 C 640.859375 109.335938 640.386719 117.582031 640.246094 125.359375 C 644.207031 125.78125 649.953125 129.503906 655.941406 133.039062 C 657.964844 134.265625 659.097656 135.300781 660.558594 136.386719 C 667.109375 116.214844 669.417969 98.964844 670.21875 86.949219 C 671.726562 65.128906 672.765625 50.472656 664.234375 34.917969 C 655.09375 18.375 640.152344 9.988281 638.925781 9.328125 Z M 638.925781 9.328125 "/><path style=" stroke:none;fill-rule:nonzero;fill:#000000;fill-opacity:1;" d="M 509.9375 179.035156 C 512.574219 179.742188 516.488281 180.074219 521.292969 179.933594 C 521.90625 179.933594 522.472656 179.886719 523.085938 179.789062 C 524.972656 179.601562 526.761719 179.035156 528.363281 178 C 528.742188 177.765625 529.070312 177.527344 529.402344 177.246094 C 532.371094 174.796875 533.878906 170.929688 534.398438 167.113281 C 534.585938 165.839844 534.679688 164.519531 534.585938 163.25 C 526.433594 168.054688 517.714844 173.664062 509.9375 179.035156 Z M 509.9375 179.035156 "/><path style=" stroke:none;fill-rule:nonzero;fill:#000000;fill-opacity:1;" d="M 977.070312 549.558594 C 976.460938 547.109375 974.246094 545.363281 971.933594 544.421875 C 968.777344 543.101562 965.335938 543.054688 961.753906 543.480469 L 961.753906 543.527344 C 962.367188 543.667969 968.023438 545.363281 970.003906 550.359375 C 970.851562 552.527344 970.664062 554.933594 970.050781 557.101562 C 969.578125 558.65625 968.964844 560.023438 968.210938 561.386719 C 967.835938 561.199219 966.46875 560.679688 965.101562 561.199219 C 963.96875 561.625 963.453125 562.472656 962.792969 563.554688 C 962.132812 564.546875 961.332031 565.867188 961.472656 567.65625 C 961.613281 569.304688 962.414062 570.4375 962.839844 570.957031 C 960.71875 574.347656 958.222656 577.648438 954.59375 579.109375 C 951.90625 580.144531 948.984375 580.144531 946.109375 579.816406 C 945.261719 580.382812 944.316406 580.804688 943.421875 581.183594 L 943.375 581.183594 C 944.128906 582.644531 945.921875 585.09375 948.890625 587.214844 C 951.8125 589.335938 955.816406 590.277344 958.976562 588.628906 C 960.199219 588.015625 961.191406 587.074219 962.132812 586.082031 C 965.242188 582.785156 967.597656 578.730469 969.625 574.679688 C 972.832031 568.175781 975.234375 561.246094 976.789062 554.175781 C 977.167969 552.621094 977.449219 551.066406 977.070312 549.558594 Z M 977.070312 549.558594 "/><path style=" stroke:none;fill-rule:nonzero;fill:#000000;fill-opacity:1;" d="M 883.429688 505.683594 C 878.339844 502.855469 873.671875 499.460938 869.335938 495.597656 C 868.488281 494.796875 867.546875 493.949219 866.460938 493.476562 C 864.011719 492.535156 861.371094 493.757812 859.015625 495.03125 C 861.136719 496.632812 863.304688 498.1875 865.425781 499.746094 C 865.660156 505.257812 863.117188 510.773438 860.664062 515.816406 C 858.921875 519.445312 857.082031 523.027344 854.257812 525.902344 C 850.53125 529.71875 845.539062 531.746094 840.351562 533.347656 L 840.304688 533.347656 C 839.410156 533.582031 838.515625 533.816406 837.574219 534.101562 C 838.136719 534.808594 839.269531 536.082031 841.203125 536.929688 C 842.425781 537.496094 843.605469 537.683594 844.359375 537.730469 C 848.554688 540.746094 851.285156 545.648438 855.8125 548.097656 C 857.179688 548.804688 858.6875 549.277344 860.148438 549.792969 C 865.425781 551.679688 870.609375 553.941406 875.605469 556.582031 C 877.488281 557.617188 879.421875 558.703125 881.542969 559.078125 C 882.53125 559.265625 883.617188 559.265625 884.605469 558.984375 L 890.542969 564.074219 C 893.371094 566.574219 896.339844 569.070312 899.734375 570.484375 C 900.394531 570.71875 901.148438 570.957031 901.808594 571.191406 C 902.5625 569.023438 902.988281 566.808594 903.082031 564.546875 C 903.082031 564.121094 903.035156 558.984375 902.515625 558.984375 C 900.347656 558.984375 898.980469 557.523438 898.320312 555.496094 C 897.800781 553.988281 897.753906 552.339844 897.707031 550.738281 C 897.660156 548.757812 897.566406 546.730469 897.945312 544.703125 C 898.320312 542.726562 899.167969 540.792969 900.675781 539.425781 C 903.128906 537.164062 906.804688 536.929688 910.195312 536.882812 C 911.1875 536.835938 912.222656 536.789062 913.167969 537.070312 C 914.15625 537.351562 915.050781 537.964844 915.429688 538.90625 C 916.84375 537.496094 918.160156 535.984375 919.480469 534.523438 C 919.246094 534.335938 918.964844 534.148438 918.679688 533.960938 C 906.472656 525.097656 894.738281 515.722656 883.429688 505.683594 Z M 883.429688 505.683594 "/><path style=" stroke:none;fill-rule:nonzero;fill:#000000;fill-opacity:1;" d="M 817.96875 461.050781 C 817.96875 461.050781 817.96875 461.003906 817.921875 460.957031 C 816.363281 458.128906 813.113281 456.339844 809.910156 455.492188 C 806.183594 454.546875 802.273438 454.453125 798.691406 453.132812 C 795.109375 451.816406 792.046875 449.410156 788.605469 447.667969 C 785.730469 446.253906 782.386719 445.359375 779.367188 446.113281 C 776.398438 443.757812 773.476562 441.398438 770.554688 438.996094 C 770.039062 438.570312 769.472656 438.195312 768.90625 437.960938 C 768.484375 437.816406 768.058594 437.816406 767.585938 437.816406 C 767.304688 437.816406 766.972656 437.816406 766.691406 437.769531 C 766.644531 438.054688 766.597656 438.289062 766.550781 438.523438 C 765.417969 444.464844 765.136719 450.542969 764.289062 456.480469 C 763.394531 463.3125 761.835938 470.195312 758.066406 475.945312 C 755.570312 479.714844 751.988281 482.917969 747.933594 484.664062 C 747.179688 484.992188 746.378906 485.324219 745.53125 485.511719 C 745.625 486.125 745.671875 486.691406 745.71875 487.300781 C 745.765625 487.585938 745.765625 487.867188 745.90625 488.105469 C 746.097656 488.574219 746.664062 488.761719 747.179688 488.953125 C 752.410156 490.835938 757.785156 492.582031 763.203125 494.230469 C 764.523438 496.257812 765.9375 498.285156 767.304688 500.355469 C 767.539062 500.734375 767.777344 501.109375 768.152344 501.347656 C 768.53125 501.675781 769.09375 501.722656 769.613281 501.816406 C 773.054688 502.289062 776.636719 501.867188 780.125 502.289062 C 781.960938 502.476562 783.753906 502.902344 785.449219 503.515625 C 785.449219 503.515625 788.085938 504.457031 789.597656 504.976562 C 791.621094 506.390625 793.789062 507.566406 796.101562 507.992188 C 796.855469 508.179688 797.609375 508.273438 798.363281 508.226562 C 800.339844 508.179688 802.273438 507.472656 804.113281 506.765625 C 810.425781 504.457031 817.164062 501.867188 821.03125 496.351562 C 823.574219 492.722656 824.613281 488.246094 824.800781 483.910156 C 825.179688 476.132812 823.058594 468.214844 818.722656 461.617188 C 818.484375 461.382812 818.203125 461.242188 817.96875 461.050781 Z M 817.96875 461.050781 "/><path style=" stroke:none;fill-rule:nonzero;fill:#000000;fill-opacity:1;" d="M 614.515625 663.183594 C 614.324219 661.722656 614.136719 660.214844 613.335938 658.945312 C 612.628906 657.859375 611.59375 657.152344 610.460938 656.445312 C 609.894531 658.332031 609.234375 660.261719 608.433594 662.101562 C 606.832031 665.964844 604.710938 669.640625 601.835938 672.5625 C 597.359375 677.039062 590.667969 679.726562 584.539062 678.078125 C 581.054688 677.089844 578.179688 674.921875 575.726562 672.234375 C 573.796875 667.097656 572.195312 661.675781 570.875 656.070312 L 570.636719 656.117188 C 569.320312 657.386719 567.433594 659.601562 566.585938 662.761719 C 565.59375 666.53125 566.585938 669.734375 567.054688 671.195312 C 571.628906 686.277344 575.632812 701.5 580.628906 716.441406 C 580.960938 717.476562 581.808594 719.078125 582.890625 721.246094 C 585.90625 727.042969 592.789062 730.105469 599.292969 730.296875 C 605.84375 730.53125 612.394531 726.621094 614.890625 720.539062 C 616.304688 717.101562 616.445312 713.234375 616.542969 709.464844 C 616.636719 705.316406 616.730469 701.125 616.730469 696.882812 C 616.730469 694.289062 616.683594 691.652344 616.589844 689.011719 C 616.304688 680.386719 615.644531 671.761719 614.515625 663.183594 Z M 614.515625 663.183594 "/><path style=" stroke:none;fill-rule:nonzero;fill:#000000;fill-opacity:1;" d="M 712.851562 187.851562 C 712.5625 189.691406 712.109375 191.753906 711.511719 193.804688 C 708.578125 194.722656 705.59375 195.402344 702.542969 195.773438 C 702.785156 195.335938 702.980469 194.867188 703.207031 194.449219 C 705.949219 188.171875 708.769531 181.769531 709.996094 175.027344 C 710.464844 172.21875 710.640625 169.316406 710.417969 166.460938 C 713.933594 175.914062 713.53125 183.460938 712.851562 187.851562 Z M 712.851562 187.851562 "/><path style="fill:none;stroke-width:0.711;stroke-linecap:round;stroke-linejoin:round;stroke:#333333;stroke-opacity:1;stroke-miterlimit:4;" d="M 70.694198 360.242756 C 70.258347 358.438818 69.853975 356.634881 69.386646 354.862421 C 63.943354 332.556549 57.286945 310.500081 49.509431 288.879464 " transform="matrix(1.613224,0,0,1.613224,461.884087,1.613244)"/><path style="fill:none;stroke-width:0.711;stroke-linecap:round;stroke-linejoin:round;stroke:#333333;stroke-opacity:1;stroke-miterlimit:4;" d="M 101.855104 274.767586 C 100.547551 305.8389 98.525688 336.881157 95.794357 367.858037 C 96.273793 380.410538 91.588398 392.759642 90.91525 405.256451 C 90.852294 406.656016 90.820816 408.026524 90.852294 409.426089 " transform="matrix(1.613224,0,0,1.613224,461.884087,1.613244)"/><path style="fill:none;stroke-width:0.711;stroke-linecap:round;stroke-linejoin:round;stroke:#333333;stroke-opacity:1;stroke-miterlimit:4;" d="M 70.5586 415.712025 C 63.725429 397.350603 62.70118 373.291643 69.381803 354.872107 " transform="matrix(1.613224,0,0,1.613224,461.884087,1.613244)"/><path style="fill:none;stroke-width:0.711;stroke-linecap:round;stroke-linejoin:round;stroke:#333333;stroke-opacity:1;stroke-miterlimit:4;" d="M 92.09689 405.910227 C 91.753052 407.091867 91.34868 408.275928 90.852294 409.426089 C 89.857102 411.820847 88.549549 414.092114 86.745612 415.896051 C 83.97796 418.695181 79.839799 420.34415 76.045476 419.317479 C 71.84436 418.167318 69.137242 414.247083 66.805441 410.576251 " transform="matrix(1.613224,0,0,1.613224,461.884087,1.613244)"/><path style="fill:none;stroke-width:0.711;stroke-linecap:round;stroke-linejoin:round;stroke:#333333;stroke-opacity:1;stroke-miterlimit:4;" d="M 119.729826 264.77934 C 119.027622 260.113316 119.308504 256.423113 119.688663 253.946028 C 120.262533 250.209819 121.470808 246.328326 122.645183 242.80762 C 122.906694 242.02551 123.168204 241.240979 123.429715 240.456448 C 125.739723 233.526421 131.134587 227.901526 138.139677 225.828813 C 138.18084 225.816706 138.222004 225.804599 138.260746 225.792492 C 140.23176 225.216201 145.447441 223.697987 151.263626 225.015225 C 155.665719 226.010418 158.869222 228.281684 160.784543 229.962131 " transform="matrix(1.613224,0,0,1.613224,461.884087,1.613244)"/><path style="fill:none;stroke-width:0.711;stroke-linecap:round;stroke-linejoin:round;stroke:#333333;stroke-opacity:1;stroke-miterlimit:4;" d="M 153.411402 282.750918 L 153.411402 282.782396 C 156.273488 286.765588 160.067811 289.969091 164.205972 292.613252 C 167.876803 294.976531 171.828517 296.874903 175.777808 298.710319 C 176.308093 298.959722 176.804479 299.177648 177.303286 299.427051 " transform="matrix(1.613224,0,0,1.613224,461.884087,1.613244)"/><path style="fill:none;stroke-width:0.711;stroke-linecap:round;stroke-linejoin:round;stroke:#333333;stroke-opacity:1;stroke-miterlimit:4;" d="M 160.784543 229.95971 C 171.857573 239.916477 178.049075 259.793692 188.347259 270.370336 C 188.502228 270.556783 188.688675 270.714174 188.843645 270.837665 " transform="matrix(1.613224,0,0,1.613224,461.884087,1.613244)"/><path style="fill:none;stroke-width:0.711;stroke-linecap:round;stroke-linejoin:round;stroke:#333333;stroke-opacity:1;stroke-miterlimit:4;" d="M 102.058501 273.602896 C 86.384824 285.445929 66.045124 290.925541 46.543225 288.567104 C 44.845828 281.629813 41.625376 275.067838 40.618076 267.99495 C 39.782696 262.140022 40.50185 256.234244 41.639904 250.396266 C 41.652011 250.367209 41.661697 250.335731 41.668961 250.306674 C 42.635097 246.417917 43.630289 242.497682 44.594004 238.608925 L 45.434227 235.342466 " transform="matrix(1.613224,0,0,1.613224,461.884087,1.613244)"/><path style="fill:none;stroke-width:0.711;stroke-linecap:round;stroke-linejoin:round;stroke:#333333;stroke-opacity:1;stroke-miterlimit:4;" d="M 44.470513 165.783111 C 45.494762 176.858563 46.584389 187.934014 47.674015 198.977987 C 47.114674 202.18149 46.521432 205.384993 45.930612 208.588496 C 44.3446 217.329724 42.758588 226.41479 43.971706 235.093063 " transform="matrix(1.613224,0,0,1.613224,461.884087,1.613244)"/><path style="fill:none;stroke-width:0.711;stroke-linecap:round;stroke-linejoin:round;stroke:#333333;stroke-opacity:1;stroke-miterlimit:4;" d="M 37.937594 110.597145 C 38.74634 114.548858 39.492129 118.81051 40.177383 123.135118 L 40.177383 123.166596 " transform="matrix(1.613224,0,0,1.613224,461.884087,1.613244)"/><path style="fill:none;stroke-width:0.711;stroke-linecap:round;stroke-linejoin:round;stroke:#333333;stroke-opacity:1;stroke-miterlimit:4;" d="M 160.784543 229.95971 C 158.358308 224.7973 155.961129 219.695425 153.566371 214.530594 C 151.575986 210.30042 149.304719 205.789365 145.166559 203.673068 L 145.166559 203.644011 L 145.137502 203.644011 " transform="matrix(1.613224,0,0,1.613224,461.884087,1.613244)"/><path style="fill:none;stroke-width:0.711;stroke-linecap:round;stroke-linejoin:round;stroke:#333333;stroke-opacity:1;stroke-miterlimit:4;" d="M 14.513039 92.211508 C 14.760021 91.184838 15.103859 90.189645 15.476754 89.225931 C 25.866951 81.387882 36.630042 74.046219 47.674015 67.200941 C 50.940474 65.179078 54.330425 63.157215 58.064212 62.442904 C 61.299193 61.820606 64.628609 62.162022 67.895068 62.534917 C 72.239047 63.031302 75.23431 63.794041 76.791265 64.27832 C 77.762244 64.578572 78.561304 64.866718 79.120645 65.077379 " transform="matrix(1.613224,0,0,1.613224,461.884087,1.613244)"/><path style="fill:none;stroke-width:0.711;stroke-linecap:round;stroke-linejoin:round;stroke:#333333;stroke-opacity:1;stroke-miterlimit:4;" d="M 43.971706 235.093063 C 44.470513 235.187497 44.93542 235.27951 45.434227 235.342466 C 58.567862 237.395807 73.800845 238.504805 86.435673 233.608749 C 93.837872 230.739398 100.240035 225.763436 107.467892 222.480027 C 114.50446 219.283788 122.124584 217.717147 129.35002 215.034243 C 135.522151 212.741184 145.738008 208.501325 145.29005 200.44293 C 145.241622 199.566385 145.110867 198.701948 144.856621 197.856882 C 144.110832 195.430646 142.398907 193.440261 140.749938 191.541889 C 139.660311 190.297293 138.573106 189.021219 137.483479 187.776623 C 134.621393 168.398216 134.902274 148.550058 138.292224 129.263663 C 140.004149 128.174036 141.403714 126.648559 142.553876 124.876099 C 144.202845 122.326372 145.353006 119.306895 146.164173 116.384274 C 149.537173 104.185297 149.464531 101.129499 148.837391 98.99383 C 148.469339 97.737127 148.009274 96.746777 147.672701 96.102687 C 143.457056 94.260007 139.24141 92.414905 135.023344 90.569804 C 129.531625 87.945014 125.684031 85.409816 123.141569 83.533236 C 122.255339 82.877039 121.555556 82.240212 120.279482 81.479895 C 116.579594 79.271585 112.995932 76.937362 110.538219 76.719436 L 110.482527 78.399883 " transform="matrix(1.613224,0,0,1.613224,461.884087,1.613244)"/><path style="fill:none;stroke-width:0.711;stroke-linecap:round;stroke-linejoin:round;stroke:#333333;stroke-opacity:1;stroke-miterlimit:4;" d="M 147.672701 96.102687 L 151.651049 94.986425 " transform="matrix(1.613224,0,0,1.613224,461.884087,1.613244)"/><path style="fill:none;stroke-width:0.711;stroke-linecap:round;stroke-linejoin:round;stroke:#333333;stroke-opacity:1;stroke-miterlimit:4;" d="M 142.553876 124.876099 C 144.265801 123.975341 146.379677 123.757416 147.781663 122.418385 C 148.403961 121.859044 148.837391 121.113254 149.181228 120.365044 C 149.336198 120.086584 149.459689 119.805702 149.585601 119.524821 C 151.295104 115.636064 153.038507 111.686772 153.784296 107.485655 C 154.501029 103.28696 154.125713 98.775905 151.856868 95.168029 " transform="matrix(1.613224,0,0,1.613224,461.884087,1.613244)"/><path style="fill:none;stroke-width:0.711;stroke-linecap:round;stroke-linejoin:round;stroke:#333333;stroke-opacity:1;stroke-miterlimit:4;" d="M 153.418666 282.750918 C 146.379677 279.244741 139.39638 275.593281 132.502674 271.85465 C 130.2532 270.65606 128.032783 269.428414 125.841422 268.203189 C 123.826823 267.09177 121.577349 266.098999 119.734669 264.726069 C 119.647499 264.667956 119.589385 264.638899 119.531272 264.578364 C 115.937925 261.861561 112.170237 260.169008 107.84563 258.941361 C 106.794745 258.648373 105.741439 258.386863 104.661498 258.444976 C 103.581557 258.503089 102.441081 258.912305 101.799412 259.788849 C 101.273969 260.52011 101.126264 261.454767 101.155321 262.331312 C 101.184378 264.433081 102.089979 266.391988 102.382967 268.435643 C 102.646899 270.159675 102.26674 271.883707 102.002809 273.636795 C 101.944695 273.985476 101.886582 274.365634 101.857525 274.745793 " transform="matrix(1.613224,0,0,1.613224,461.884087,1.613244)"/><path style="fill:none;stroke-width:0.711;stroke-linecap:round;stroke-linejoin:round;stroke:#333333;stroke-opacity:1;stroke-miterlimit:4;" d="M 151.638942 94.981582 C 169.184355 88.572155 187.816974 80.765584 205.485878 74.76053 C 207.757145 75.881635 209.343157 78.276392 209.841964 80.794641 C 210.183381 82.630057 210.028411 84.496951 209.561083 86.332366 C 197.149022 94.204315 184.76844 102.10532 172.35638 110.006325 C 165.169686 114.611814 157.610097 119.306895 149.181228 120.365044 " transform="matrix(1.613224,0,0,1.613224,461.884087,1.613244)"/><path style="fill:none;stroke-width:0.711;stroke-linecap:round;stroke-linejoin:round;stroke:#333333;stroke-opacity:1;stroke-miterlimit:4;" d="M 205.64569 74.842857 C 206.868494 74.019583 208.919413 72.881529 210.856528 71.738631 C 212.461911 70.789445 213.725878 69.360823 214.461982 67.648899 C 216.014095 64.041023 217.561365 60.430726 219.101371 56.815587 C 219.919802 54.893001 221.312102 53.253718 223.11604 52.195569 C 223.3945 52.033336 223.677803 51.873524 223.961106 51.720976 C 227.510868 48.483574 231.06063 45.246171 234.610392 42.008769 C 235.796875 40.928828 237.286032 40.241152 238.879308 40.040176 L 241.920578 39.655175 " transform="matrix(1.613224,0,0,1.613224,461.884087,1.613244)"/><path style="fill:none;stroke-width:0.711;stroke-linecap:round;stroke-linejoin:round;stroke:#333333;stroke-opacity:1;stroke-miterlimit:4;" d="M 209.561083 86.332366 C 211.839613 85.218526 216.939067 82.707541 219.147377 81.465367 C 220.638955 81.356404 222.486478 81.060994 224.503498 80.344262 C 229.123516 78.702557 232.046137 75.762986 233.486866 74.068011 C 235.792032 74.184238 238.102041 74.155181 240.399943 73.983262 C 241.324915 73.903357 242.855235 73.779865 244.75845 73.653953 C 249.24287 73.3537 250.5819 73.385178 250.920895 72.60549 C 251.308318 71.71926 250.194477 70.271267 249.143593 69.498843 C 248.385697 68.941922 247.351762 68.510914 243.288665 68.547235 C 239.320002 68.581135 238.215846 69.012143 235.639484 68.631984 C 234.109164 68.406795 232.888782 68.01695 232.096987 67.723962 " transform="matrix(1.613224,0,0,1.613224,461.884087,1.613244)"/><path style="fill:none;stroke-width:0.711;stroke-linecap:round;stroke-linejoin:round;stroke:#333333;stroke-opacity:1;stroke-miterlimit:4;" d="M 228.133166 52.050285 C 229.16468 51.306918 230.263992 50.56355 231.428682 49.827447 C 234.215705 48.069515 236.910716 46.662686 239.412015 45.529474 C 241.245009 45.037931 243.57681 44.633559 246.274242 44.706201 C 247.182265 44.730414 248.037016 44.805478 248.82639 44.912019 C 249.01768 46.662686 248.497081 47.464167 248.16535 47.822533 C 247.482517 48.56348 246.581759 48.541687 243.879485 49.023544 C 242.574354 49.258419 241.528312 49.488452 240.886643 49.636157 C 238.298174 51.5539 235.709705 53.474064 233.121236 55.391808 C 231.794312 57.510526 230.716793 59.789057 229.910469 62.159601 C 230.03396 62.859383 230.276099 63.752877 230.777327 64.697221 C 231.96381 66.93943 233.845232 68.043586 234.699984 68.472172 " transform="matrix(1.613224,0,0,1.613224,461.884087,1.613244)"/><path style="fill:none;stroke-width:0.711;stroke-linecap:round;stroke-linejoin:round;stroke:#333333;stroke-opacity:1;stroke-miterlimit:4;" d="M 44.594004 100.579842 C 39.555085 103.536363 34.608179 106.647853 29.787186 109.974847 L 29.755708 109.974847 L 29.755708 110.006325 " transform="matrix(1.613224,0,0,1.613224,461.884087,1.613244)"/><g clip-rule="nonzero" clip-path="url(#7605364d27)"><path style="fill:none;stroke-width:0.711;stroke-linecap:round;stroke-linejoin:round;stroke:#333333;stroke-opacity:1;stroke-miterlimit:4;" d="M 28.356143 135.421265 C 25.220439 133.600378 22.716718 131.973202 21.004794 130.820619 C 12.89797 125.360378 6.556342 120.989763 2.355225 113.36964 C 1.357611 111.558438 0.718364 109.99664 0.355155 109.035347 C 1.120315 106.536469 2.808026 104.245831 4.551429 102.228811 C 7.125369 99.250498 9.931764 96.492531 12.808379 93.804785 C 15.975561 90.845843 20.0774 88.959578 24.411694 88.845772 C 27.971141 88.751338 31.600809 89.327629 35.065822 90.204174 C 38.22574 91.003233 41.540627 92.19698 43.434156 94.848405 C 44.998376 97.039766 45.325264 99.918802 44.954791 102.584756 C 44.589161 105.219231 43.45837 107.919084 41.21616 109.347706 C 39.925558 110.17098 38.368602 110.502711 36.838282 110.541453 C 33.833333 110.616516 31.363513 110.413119 29.743601 109.97969 " transform="matrix(1.613224,0,0,1.613224,461.884087,1.613244)"/></g><path style="fill:none;stroke-width:0.711;stroke-linecap:round;stroke-linejoin:round;stroke:#333333;stroke-opacity:1;stroke-miterlimit:4;" d="M 38.257218 141.951762 C 33.588773 147.099643 31.770307 150.27409 31.009989 152.276582 C 30.770271 152.906144 30.087439 154.860208 28.796836 155.058762 C 28.218123 155.148354 27.554662 154.877158 27.213245 154.404986 C 26.620004 153.593819 27.094597 152.329852 27.353686 151.663969 C 28.215702 149.443552 29.813821 145.503945 31.964018 140.484398 C 30.35137 141.065532 28.617653 141.777422 26.806451 142.649123 C 25.571541 143.242364 24.4238 143.852556 23.358388 144.460325 C 21.939451 145.617751 20.658534 146.443446 19.692399 147.010052 C 18.140286 147.915653 17.493774 148.092415 16.864212 147.91081 C 15.997353 147.658985 15.515496 146.83329 15.302413 146.390175 C 16.198329 145.731556 17.145093 144.978503 18.11365 144.116487 C 19.169378 143.18183 20.09435 142.259279 20.903095 141.385156 C 23.387444 139.397193 25.871793 137.409229 28.356143 135.421265 " transform="matrix(1.613224,0,0,1.613224,461.884087,1.613244)"/><path style="fill:none;stroke-width:0.711;stroke-linecap:round;stroke-linejoin:round;stroke:#333333;stroke-opacity:1;stroke-miterlimit:4;" d="M 28.356143 135.421265 C 28.375514 133.980537 28.406992 132.525279 28.436049 131.072444 C 28.479634 128.82297 29.758129 126.745414 31.801785 125.803493 C 33.368426 125.084339 35.143307 124.769558 36.879446 124.752608 C 38.775396 124.752608 40.64229 125.062546 42.509184 125.466919 C 41.731917 124.72113 40.95465 123.943863 40.177383 123.166596 L 40.177383 123.135118 C 36.257148 119.091391 32.804241 114.703827 29.755708 110.006325 L 29.755708 109.974847 C 29.13341 109.042611 28.54259 108.078896 27.980827 107.112761 " transform="matrix(1.613224,0,0,1.613224,461.884087,1.613244)"/><path style="fill:none;stroke-width:0.711;stroke-linecap:round;stroke-linejoin:round;stroke:#333333;stroke-opacity:1;stroke-miterlimit:4;" d="M 42.497077 125.476605 C 44.121832 128.229728 47.565053 133.978115 49.192229 136.731239 C 49.707985 137.605362 50.228585 138.48917 50.645065 139.411721 C 49.942861 145.051145 48.267257 150.528336 46.647345 155.97647 C 45.703002 160.012932 44.807086 164.061501 43.957177 168.117334 C 43.913592 168.320731 43.867586 168.533814 43.731988 168.691204 C 43.610918 168.834066 43.429314 168.913972 43.250131 168.967243 C 42.741638 169.110105 41.722232 168.921237 41.063613 168.308624 C 40.233075 167.5362 40.029678 166.136635 40.533328 164.780655 " transform="matrix(1.613224,0,0,1.613224,461.884087,1.613244)"/><path style="fill:none;stroke-width:0.711;stroke-linecap:round;stroke-linejoin:round;stroke:#333333;stroke-opacity:1;stroke-miterlimit:4;" d="M 40.509114 164.887196 C 41.903836 159.056482 42.911135 153.136176 43.526169 147.174707 " transform="matrix(1.613224,0,0,1.613224,461.884087,1.613244)"/><path style="fill:none;stroke-width:0.711;stroke-linecap:round;stroke-linejoin:round;stroke:#333333;stroke-opacity:1;stroke-miterlimit:4;" d="M 38.247533 141.954183 C 38.279011 143.63463 38.279011 145.315077 38.279011 146.995524 C 38.124042 148.099679 37.976337 149.242576 37.838317 150.419373 C 37.77294 150.9884 37.610706 152.419444 37.470266 154.056305 C 36.889131 160.84347 37.545329 161.586837 37.879481 161.877404 C 38.320174 162.259985 39.305681 162.792691 40.291188 162.533602 C 40.67619 162.431903 40.961914 162.233349 41.141097 162.083223 " transform="matrix(1.613224,0,0,1.613224,461.884087,1.613244)"/><path style="fill:none;stroke-width:0.711;stroke-linecap:round;stroke-linejoin:round;stroke:#333333;stroke-opacity:1;stroke-miterlimit:4;" d="M 188.938079 270.370336 L 188.843645 270.837665 C 188.15839 274.508497 187.971943 278.271341 187.44408 281.973651 C 186.884738 286.203825 185.918602 290.467897 183.586801 294.012817 C 182.061323 296.378518 179.821535 298.337424 177.303286 299.427051 C 176.835957 299.644977 176.33715 299.831424 175.840765 299.954915 " transform="matrix(1.613224,0,0,1.613224,461.884087,1.613244)"/><path style="fill:none;stroke-width:0.711;stroke-linecap:round;stroke-linejoin:round;stroke:#333333;stroke-opacity:1;stroke-miterlimit:4;" d="M 188.938079 306.051982 C 188.221347 305.834057 187.507036 305.616132 186.790303 305.366728 C 183.431831 304.342479 180.102416 303.252852 176.835957 302.100269 C 176.526019 301.976778 176.182181 301.853287 176.05869 301.572405 C 175.964256 301.417436 175.964256 301.230989 175.932778 301.07602 L 175.840765 299.954915 C 175.840765 299.519064 175.809286 299.114692 175.777808 298.710319 " transform="matrix(1.613224,0,0,1.613224,461.884087,1.613244)"/><path style="fill:none;stroke-width:0.711;stroke-linecap:round;stroke-linejoin:round;stroke:#333333;stroke-opacity:1;stroke-miterlimit:4;" d="M 221.195876 285.148097 C 223.871515 289.223301 225.210545 294.138729 224.961142 298.959722 C 224.835229 301.66684 224.212931 304.434492 222.626919 306.67428 C 220.232161 310.095709 216.062523 311.713199 212.144709 313.144242 C 210.992126 313.580093 209.810486 314.015944 208.56589 314.047422 C 208.100983 314.0789 207.633654 314.015944 207.166325 313.892453 C 205.730439 313.630942 204.39383 312.911789 203.146813 312.032823 C 202.197627 311.696249 200.572872 311.122379 200.572872 311.122379 C 199.514723 310.749485 198.393618 310.468603 197.274935 310.345112 C 195.095681 310.095709 192.887371 310.345112 190.742017 310.06423 C 190.429657 310.003696 190.088241 309.972218 189.838837 309.78577 C 189.620912 309.630801 189.465943 309.381398 189.310973 309.163472 C 188.47075 307.887398 187.599049 306.611324 186.790303 305.366728 " transform="matrix(1.613224,0,0,1.613224,461.884087,1.613244)"/><path style="fill:none;stroke-width:0.711;stroke-linecap:round;stroke-linejoin:round;stroke:#333333;stroke-opacity:1;stroke-miterlimit:4;" d="M 188.359366 270.363072 L 188.942922 270.363072 C 189.117262 270.392129 189.32308 270.392129 189.497421 270.392129 C 189.790409 270.392129 190.054341 270.392129 190.315852 270.48172 C 190.666954 270.627004 191.018055 270.859458 191.337679 271.123389 C 193.148881 272.612546 194.960083 274.075067 196.802763 275.535167 " transform="matrix(1.613224,0,0,1.613224,461.884087,1.613244)"/><path style="fill:none;stroke-width:0.711;stroke-linecap:round;stroke-linejoin:round;stroke:#333333;stroke-opacity:1;stroke-miterlimit:4;" d="M 196.807606 275.535167 C 198.6745 275.067838 200.759319 275.62718 202.531779 276.498882 C 204.648076 277.588508 206.544027 279.080087 208.783815 279.888832 C 210.992126 280.699998 213.418361 280.760533 215.721106 281.351353 C 217.711491 281.881638 219.733354 282.968844 220.69949 284.743725 C 220.730968 284.775203 220.730968 284.804259 220.730968 284.804259 " transform="matrix(1.613224,0,0,1.613224,461.884087,1.613244)"/><path style="fill:none;stroke-width:0.711;stroke-linecap:round;stroke-linejoin:round;stroke:#333333;stroke-opacity:1;stroke-miterlimit:4;" d="M 234.60555 329.60245 L 234.574072 329.60245 C 233.888817 329.353047 233.266519 329.103643 232.612743 328.85424 C 223.375129 325.30932 214.757392 320.238924 207.197803 313.921509 L 207.166325 313.892453 " transform="matrix(1.613224,0,0,1.613224,461.884087,1.613244)"/><path style="fill:none;stroke-width:0.711;stroke-linecap:round;stroke-linejoin:round;stroke:#333333;stroke-opacity:1;stroke-miterlimit:4;" d="M 250.221113 308.822056 C 250.189635 308.822056 250.189635 308.790578 250.158156 308.790578 C 248.821548 307.824442 247.482517 306.860728 246.177386 305.865535 C 237.622605 299.269661 230.00006 291.431612 221.195876 285.148097 C 221.040906 284.990707 220.885937 284.898694 220.730968 284.804259 C 220.730968 284.804259 220.730968 284.775203 220.69949 284.743725 " transform="matrix(1.613224,0,0,1.613224,461.884087,1.613244)"/><path style="fill:none;stroke-width:0.711;stroke-linecap:round;stroke-linejoin:round;stroke:#333333;stroke-opacity:1;stroke-miterlimit:4;" d="M 232.893625 330.067357 L 234.574072 329.60245 L 234.60555 329.60245 C 237.809052 328.604836 240.920542 327.362662 243.220866 324.996961 C 244.964269 323.224501 246.11443 320.984713 247.204057 318.744924 C 248.727113 315.601956 250.284069 312.212006 250.158156 308.790578 C 250.158156 308.16828 250.066144 307.483026 249.908753 306.829249 " transform="matrix(1.613224,0,0,1.613224,461.884087,1.613244)"/><path style="fill:none;stroke-width:0.711;stroke-linecap:round;stroke-linejoin:round;stroke:#333333;stroke-opacity:1;stroke-miterlimit:4;" d="M 246.177386 305.865535 C 247.639908 305.05679 249.257398 304.311001 250.780454 304.901821 C 251.465709 305.180281 252.056528 305.710566 252.584392 306.206952 C 255.260031 308.604131 258.153596 310.718007 261.296564 312.461409 C 268.308918 318.689232 275.577939 324.507839 283.164163 329.975345 C 283.319133 330.098836 283.508001 330.224748 283.66297 330.348239 " transform="matrix(1.613224,0,0,1.613224,461.884087,1.613244)"/><path style="fill:none;stroke-width:0.711;stroke-linecap:round;stroke-linejoin:round;stroke:#333333;stroke-opacity:1;stroke-miterlimit:4;" d="M 263.843869 344.467381 C 262.981853 345.501316 261.475747 345.791883 260.151245 345.554587 C 258.826743 345.31729 257.630575 344.641721 256.441671 344.009738 C 253.361659 342.370455 250.155735 340.966047 246.862641 339.811043 C 245.959461 339.496262 245.041753 339.196009 244.199108 338.740787 C 241.378186 337.222574 239.697739 334.195832 237.099584 332.316831 C 236.620149 332.290196 235.903416 332.190919 235.116464 331.842238 C 233.929981 331.314375 233.222934 330.503208 232.893625 330.067357 C 232.799191 329.662985 232.707178 329.258612 232.612743 328.85424 " transform="matrix(1.613224,0,0,1.613224,461.884087,1.613244)"/><path style="fill:none;stroke-width:0.711;stroke-linecap:round;stroke-linejoin:round;stroke:#333333;stroke-opacity:1;stroke-miterlimit:4;" d="M 283.66297 330.348239 C 282.822747 331.248997 282.009159 332.173969 281.149565 333.057778 C 280.914689 332.481486 280.345662 332.094063 279.747578 331.924566 C 279.149494 331.755068 278.515089 331.769597 277.892791 331.786546 C 275.807972 331.842238 273.524598 331.972994 271.987014 333.382244 C 271.064463 334.22731 270.543864 335.435586 270.313831 336.663232 C 270.081377 337.890878 270.117698 339.152424 270.151598 340.401862 C 270.180655 341.389791 270.209711 342.394669 270.524492 343.331748 C 270.945815 344.586029 271.800566 345.49163 273.151704 345.498895 C 273.451956 345.501316 273.49312 348.675762 273.481013 348.956644 C 273.432585 350.353787 273.166232 351.733981 272.713432 353.056062 C 272.277581 352.932571 271.810252 352.777602 271.405879 352.622633 C 269.32106 351.750931 267.454166 350.193975 265.713185 348.670919 C 264.500067 347.612771 263.255471 346.554622 262.042353 345.498895 " transform="matrix(1.613224,0,0,1.613224,461.884087,1.613244)"/><path style="fill:none;stroke-width:0.711;stroke-linecap:round;stroke-linejoin:round;stroke:#333333;stroke-opacity:1;stroke-miterlimit:4;" d="M 300.150235 358.40734 C 299.61995 358.751178 299.060608 359.029638 298.501266 359.247564 L 298.469788 359.247564 C 296.416447 360.056309 294.14518 360.274234 291.905392 360.49216 C 290.227367 360.647129 288.515442 360.802098 286.960908 360.242756 C 284.721119 359.402533 283.290076 357.288657 281.546673 355.639688 " transform="matrix(1.613224,0,0,1.613224,461.884087,1.613244)"/><path style="fill:none;stroke-width:0.711;stroke-linecap:round;stroke-linejoin:round;stroke:#333333;stroke-opacity:1;stroke-miterlimit:4;" d="M 271.405879 352.622633 C 271.497892 352.80908 271.592327 352.995527 271.715818 353.150496 C 272.338116 353.959241 273.490699 354.145689 274.517369 354.26918 C 276.880649 354.581539 279.214872 355.048868 281.546673 355.639688 " transform="matrix(1.613224,0,0,1.613224,461.884087,1.613244)"/><path style="fill:none;stroke-width:0.711;stroke-linecap:round;stroke-linejoin:round;stroke:#333333;stroke-opacity:1;stroke-miterlimit:4;" d="M 283.164163 329.975345 C 284.408759 329.788897 285.684834 329.725941 286.834995 330.19327 C 287.488771 330.47173 288.048113 330.876103 288.578398 331.311953 C 290.266109 332.701833 291.968348 334.072341 293.639109 335.484013 C 294.551974 335.900493 295.782042 336.360558 297.283306 336.648703 C 298.82089 336.944113 300.15992 336.968327 301.176905 336.912635 C 306.123811 337.004648 311.598581 334.578412 316.170171 336.476785 C 317.601214 337.067604 318.971722 338.125753 319.344617 339.648809 C 319.591599 340.583467 319.405151 341.547181 319.187226 342.510896 C 318.223512 346.89846 316.729512 351.191589 314.739127 355.235316 C 313.494531 357.753564 312.034431 360.242756 310.104581 362.296097 C 309.513761 362.918395 308.891463 363.509215 308.145674 363.88211 C 306.184346 364.90878 303.695154 364.31796 301.891216 363.01283 C 300.043694 361.673799 298.922589 360.165272 298.469788 359.247564 " transform="matrix(1.613224,0,0,1.613224,461.884087,1.613244)"/><path style="fill:none;stroke-width:0.711;stroke-linecap:round;stroke-linejoin:round;stroke:#333333;stroke-opacity:1;stroke-miterlimit:4;" d="M 300.150235 358.40734 C 301.954173 358.625266 303.75811 358.625266 305.407079 357.97149 C 307.678346 357.070731 309.201402 355.01739 310.540432 352.932571 C 310.264393 352.60084 309.758322 351.886529 309.68568 350.884072 C 309.603353 349.770232 310.104581 348.961486 310.492004 348.334346 C 310.901219 347.673305 311.235372 347.135756 311.923047 346.874246 C 312.792327 346.542515 313.625287 346.886353 313.872269 347.000158 C 314.320226 346.155092 314.717335 345.285812 314.988531 344.346312 C 315.392903 342.978225 315.487338 341.484225 314.957053 340.147616 C 313.736671 337.06034 310.235336 336.014298 309.855178 335.917443 " transform="matrix(1.613224,0,0,1.613224,461.884087,1.613244)"/><path style="fill:none;stroke-width:0.711;stroke-linecap:round;stroke-linejoin:round;stroke:#333333;stroke-opacity:1;stroke-miterlimit:4;" d="M 90.91525 405.256451 C 91.319623 405.474376 91.723996 405.692301 92.09689 405.910227 C 92.811201 406.346078 93.433499 406.781928 93.86935 407.464761 C 94.368157 408.24445 94.491648 409.176686 94.615139 410.079865 C 95.300393 415.399666 95.736244 420.748523 95.891213 426.099801 C 95.954169 427.74877 95.985647 429.36626 95.985647 430.983751 C 95.985647 433.596434 95.922691 436.209117 95.859735 438.792743 C 95.7992 441.124544 95.736244 443.521723 94.833064 445.635599 C 93.310008 449.400865 89.234804 451.827101 85.191077 451.701189 C 81.147351 451.577697 76.883278 449.679325 75.018806 446.07145 C 74.328709 444.742105 73.825059 443.737227 73.616819 443.117351 C 70.517436 433.855523 68.030666 424.399983 65.18795 415.055828 C 64.911912 414.152648 64.292035 412.152578 64.907069 409.830462 C 65.425247 407.876398 66.602044 406.513154 67.427739 405.72378 " transform="matrix(1.613224,0,0,1.613224,461.884087,1.613244)"/><path style="fill:none;stroke-width:0.711;stroke-linecap:round;stroke-linejoin:round;stroke:#333333;stroke-opacity:1;stroke-miterlimit:4;" d="M 73.616819 443.117351 C 73.369837 445.262705 73.493328 447.439537 73.616819 449.587313 C 73.834745 452.88525 74.147104 456.180765 75.047862 459.364897 C 74.294809 461.461823 73.609555 463.582964 73.137383 465.757374 C 70.452059 478.099214 75.275473 491.784927 85.176549 499.652033 C 87.685112 500.763452 90.772388 500.547948 93.065447 499.017628 C 96.220522 496.908595 97.486911 492.964145 98.545059 489.319949 C 99.566887 485.794401 100.595979 482.218004 100.671042 478.547172 C 100.741263 475.060366 99.949467 471.621988 99.123772 468.234459 C 98.147951 464.21979 97.123702 460.217227 96.043761 456.229193 C 97.353734 448.882687 98.162479 441.473225 98.443361 434.032284 C 98.503896 432.47775 98.535374 430.952273 98.131001 429.460694 C 97.789585 428.153142 97.043796 426.84559 95.891213 426.099801 " transform="matrix(1.613224,0,0,1.613224,461.884087,1.613244)"/><path style="fill:none;stroke-width:0.711;stroke-linecap:round;stroke-linejoin:round;stroke:#333333;stroke-opacity:1;stroke-miterlimit:4;" d="M 81.924618 63.716556 L 81.924618 63.748035 C 84.568779 67.605314 88.331624 70.716803 92.469785 72.893636 C 98.038988 75.818678 104.259547 77.186765 110.511583 77.932554 " transform="matrix(1.613224,0,0,1.613224,461.884087,1.613244)"/><path style="fill:none;stroke-width:0.711;stroke-linecap:round;stroke-linejoin:round;stroke:#333333;stroke-opacity:1;stroke-miterlimit:4;" d="M 79.123067 65.087065 C 81.738171 69.782146 85.999823 73.547412 90.789338 76.068082 C 96.731436 79.17715 103.809168 80.145707 110.467998 80.893918 " transform="matrix(1.613224,0,0,1.613224,461.884087,1.613244)"/><path style="fill:none;stroke-width:0.711;stroke-linecap:round;stroke-linejoin:round;stroke:#333333;stroke-opacity:1;stroke-miterlimit:4;" d="M 114.930625 33.1271 C 115.056538 32.984237 116.126794 31.773541 117.543308 31.955145 C 118.78064 32.114957 119.446523 33.226377 119.867846 33.933423 C 120.809767 35.50975 120.715333 37.105448 120.662062 38.052213 C 120.60637 38.979606 120.487722 41.042633 118.974352 42.817514 C 118.511866 43.359906 117.623214 44.403526 116.095315 44.703779 C 115.109809 44.897491 114.279271 44.701358 113.816785 44.551231 C 112.882127 49.747541 112.075803 55.365172 111.484983 61.365384 C 110.799729 68.341417 110.504319 74.879178 110.467998 80.893918 " transform="matrix(1.613224,0,0,1.613224,461.884087,1.613244)"/><path style="fill:none;stroke-width:0.711;stroke-linecap:round;stroke-linejoin:round;stroke:#333333;stroke-opacity:1;stroke-miterlimit:4;" d="M 114.930625 33.1271 C 112.932976 35.587235 112.066118 35.797896 111.642374 35.621134 C 110.063626 34.955251 113.288921 28.286735 110.177431 24.979112 C 108.765759 23.482692 106.596191 23.247816 105.441187 20.642398 C 105.167569 20.027364 105.002914 19.683526 104.944801 18.961951 C 104.741404 16.489709 103.63967 14.102215 101.889003 12.346705 C 101.889003 12.346705 101.714663 12.172365 101.426517 11.881798 C 99.528145 10.206194 97.046217 9.164995 94.523126 8.770308 C 91.113805 8.240023 87.619735 8.779994 84.292741 9.692859 L 84.290319 9.69528 C 80.97059 10.605724 78.089132 12.816456 76.566076 15.906153 C 76.522491 15.993323 76.478906 16.082915 76.437742 16.172506 C 76.154439 16.77059 75.900193 17.380781 75.67016 18.000658 C 74.46915 21.240482 74.023613 24.700652 74.03572 28.15598 C 74.064777 35.541228 74.202796 44.355099 75.905036 50.747576 C 76.280351 52.154405 76.728309 53.561235 77.507998 54.791302 C 79.123067 57.328922 81.92704 58.759965 84.745541 59.629245 C 87.12577 60.360506 89.644019 60.68013 92.123525 60.43799 C 100.223085 59.643774 106.354052 54.745296 108.613211 52.665319 " transform="matrix(1.613224,0,0,1.613224,461.884087,1.613244)"/><path style="fill:none;stroke-width:0.711;stroke-linecap:round;stroke-linejoin:round;stroke:#333333;stroke-opacity:1;stroke-miterlimit:4;" d="M 82.203079 58.64616 C 82.111066 60.326606 82.016631 62.038531 81.924618 63.716556 L 81.924618 63.748035 " transform="matrix(1.613224,0,0,1.613224,461.884087,1.613244)"/><path style="fill:none;stroke-width:0.711;stroke-linecap:round;stroke-linejoin:round;stroke:#333333;stroke-opacity:1;stroke-miterlimit:4;" d="M 74.03572 33.013294 L 73.805688 32.48543 C 71.875838 26.916227 71.812882 20.724725 73.897701 15.218477 C 76.231924 9.058454 81.239364 3.927522 87.399388 1.656256 C 93.588468 -0.615011 100.80664 0.0993 106.312888 3.709597 C 108.024813 4.82828 109.547869 6.227846 110.855421 7.816279 C 113.187223 10.678366 114.7127 14.099794 115.831384 17.644713 C 117.293905 22.250203 118.134128 27.16563 117.543308 31.955145 " transform="matrix(1.613224,0,0,1.613224,461.884087,1.613244)"/><path style="fill:none;stroke-width:0.711;stroke-linecap:round;stroke-linejoin:round;stroke:#333333;stroke-opacity:1;stroke-miterlimit:4;" d="M 228.951597 51.335974 C 229.777292 49.565936 231.433525 46.609415 234.537751 43.909562 C 238.135941 40.781123 241.862464 39.57769 243.828635 39.09099 " transform="matrix(1.613224,0,0,1.613224,461.884087,1.613244)"/><path style="fill:none;stroke-width:0.711;stroke-linecap:round;stroke-linejoin:round;stroke:#333333;stroke-opacity:1;stroke-miterlimit:4;" d="M 243.828635 39.09099 C 245.780278 38.543756 247.840883 38.250767 249.969288 38.250767 C 262.521789 38.250767 272.698903 48.427881 272.698903 60.980382 C 272.698903 73.535305 262.521789 83.709998 249.969288 83.709998 C 242.908506 83.709998 236.598356 80.491967 232.428717 75.43852 " transform="matrix(1.613224,0,0,1.613224,461.884087,1.613244)"/><path style="fill:none;stroke-width:0.711;stroke-linecap:round;stroke-linejoin:round;stroke:#333333;stroke-opacity:1;stroke-miterlimit:4;" d="M 79.236872 65.033794 C 80.13763 64.593101 81.038389 64.154829 81.941568 63.716556 " transform="matrix(1.613224,0,0,1.613224,461.884087,1.613244)"/><path style="fill:none;stroke-width:0.711;stroke-linecap:round;stroke-linejoin:round;stroke:#333333;stroke-opacity:1;stroke-miterlimit:4;" d="M 41.865094 108.870692 C 42.610883 108.546225 47.434297 106.3476 48.763642 101.279625 C 49.969496 96.686243 47.487568 92.841071 46.797471 91.770815 C 42.656889 85.354124 32.070559 83.07075 20.25174 85.67859 " transform="matrix(1.613224,0,0,1.613224,461.884087,1.613244)"/><path style="fill:none;stroke-width:0.711;stroke-linecap:round;stroke-linejoin:round;stroke:#333333;stroke-opacity:1;stroke-miterlimit:4;" d="M 97.482068 211.48206 C 102.782497 209.581267 108.69796 207.089653 114.954839 203.803823 C 122.860687 199.653556 129.466247 195.203035 134.812683 191.096353 " transform="matrix(1.613224,0,0,1.613224,461.884087,1.613244)"/><path style="fill:none;stroke-width:0.711;stroke-linecap:round;stroke-linejoin:round;stroke:#333333;stroke-opacity:1;stroke-miterlimit:4;" d="M 44.826457 107.061911 C 49.073581 105.221653 53.320704 103.383815 57.567827 101.543557 " transform="matrix(1.613224,0,0,1.613224,461.884087,1.613244)"/><path style="fill:none;stroke-width:0.711;stroke-linecap:round;stroke-linejoin:round;stroke:#333333;stroke-opacity:1;stroke-miterlimit:4;" d="M 81.263578 75.068047 C 83.54453 77.126231 87.137877 79.874511 92.118683 81.952067 C 98.753299 84.719719 104.690555 84.978808 108.136197 84.865002 " transform="matrix(1.613224,0,0,1.613224,461.884087,1.613244)"/><path style="fill:none;stroke-width:0.711;stroke-linecap:round;stroke-linejoin:round;stroke:#333333;stroke-opacity:1;stroke-miterlimit:4;" d="M 54.788068 197.648642 C 64.47364 193.914854 76.113275 188.311751 88.145177 179.778762 C 112.448698 162.543288 126.422556 141.818585 133.815069 128.549352 " transform="matrix(1.613224,0,0,1.613224,461.884087,1.613244)"/><path style="fill:none;stroke-width:0.711;stroke-linecap:round;stroke-linejoin:round;stroke:#333333;stroke-opacity:1;stroke-miterlimit:4;" d="M 129.049768 123.386942 C 125.376515 129.353255 120.373917 136.031456 113.562538 142.448148 C 91.581133 163.1559 65.2388 167.504722 53.596742 168.659726 " transform="matrix(1.613224,0,0,1.613224,461.884087,1.613244)"/><path style="fill:none;stroke-width:0.711;stroke-linecap:round;stroke-linejoin:round;stroke:#333333;stroke-opacity:1;stroke-miterlimit:4;" d="M 116.887111 35.495222 C 116.53843 35.82211 116.141322 36.30881 116.092894 36.935951 C 115.993617 38.22171 117.470667 38.906964 117.332647 39.863415 C 117.262427 40.352536 116.76362 40.957884 114.949997 41.502698 " transform="matrix(1.613224,0,0,1.613224,461.884087,1.613244)"/><path style="fill:none;stroke-width:0.711;stroke-linecap:round;stroke-linejoin:round;stroke:#333333;stroke-opacity:1;stroke-miterlimit:4;" d="M 102.724384 1.859653 C 104.538007 2.406887 107.015092 3.302803 109.756109 4.794381 C 110.511583 5.206018 119.77099 10.387799 125.4201 20.644819 C 130.725372 30.274699 130.090967 39.376715 129.149045 52.905037 C 128.630867 60.35082 127.216773 71.029163 123.141569 83.533236 " transform="matrix(1.613224,0,0,1.613224,461.884087,1.613244)"/></g></svg>